<svg width="400" height="400" xmlns="http://www.w3.org/2000/svg">
  <pattern id="mapPattern" width="400" height="400" patternUnits="userSpaceOnUse">
    <rect width="400" height="400" fill="none" />
    <path d="M0,100 C50,50 150,50 200,100 S350,150 400,100" fill="none" stroke="#000" stroke-width="0.5" />
    <path d="M0,200 C50,150 150,150 200,200 S350,250 400,200" fill="none" stroke="#000" stroke-width="0.5" />
    <path d="M0,300 C50,250 150,250 200,300 S350,350 400,300" fill="none" stroke="#000" stroke-width="0.5" />
    <path d="M100,0 C50,50 50,150 100,200 S150,350 100,400" fill="none" stroke="#000" stroke-width="0.5" />
    <path d="M200,0 C150,50 150,150 200,200 S250,350 200,400" fill="none" stroke="#000" stroke-width="0.5" />
    <path d="M300,0 C250,50 250,150 300,200 S350,350 300,400" fill="none" stroke="#000" stroke-width="0.5" />
    <circle cx="100" cy="100" r="3" fill="#000" opacity="0.3" />
    <circle cx="200" cy="200" r="3" fill="#000" opacity="0.3" />
    <circle cx="300" cy="300" r="3" fill="#000" opacity="0.3" />
    <circle cx="100" cy="300" r="3" fill="#000" opacity="0.3" />
    <circle cx="300" cy="100" r="3" fill="#000" opacity="0.3" />
  </pattern>
  <rect width="400" height="400" fill="url(#mapPattern)" />
</svg>
